<svg width="20" height="16" viewBox="0 0 20 16" fill="none" xmlns="http://www.w3.org/2000/svg">
<path d="M10.6667 12.6667C10.5109 12.667 10.3599 12.6127 10.24 12.5133C10.1725 12.4574 10.1167 12.3886 10.0758 12.3111C10.0349 12.2335 10.0097 12.1486 10.0016 12.0613C9.99358 11.974 10.0028 11.8859 10.0289 11.8022C10.0549 11.7185 10.0972 11.6407 10.1533 11.5733L13.14 8L10.26 4.42C10.2046 4.35181 10.1633 4.27335 10.1383 4.18912C10.1134 4.10489 10.1053 4.01657 10.1146 3.92921C10.1239 3.84186 10.1503 3.75721 10.1925 3.68011C10.2346 3.60302 10.2915 3.53502 10.36 3.48C10.429 3.41931 10.5097 3.37353 10.5973 3.34554C10.6848 3.31755 10.7771 3.30794 10.8685 3.31733C10.9599 3.32672 11.0484 3.3549 11.1284 3.4001C11.2083 3.44531 11.2781 3.50655 11.3333 3.58L14.5533 7.58C14.6514 7.69929 14.705 7.84892 14.705 8.00333C14.705 8.15775 14.6514 8.30738 14.5533 8.42667L11.22 12.4267C11.1531 12.5073 11.0682 12.5711 10.972 12.6128C10.8759 12.6545 10.7713 12.673 10.6667 12.6667Z" fill="#191919" style="fill:#191919;fill:color(display-p3 0.0980 0.0980 0.0980);fill-opacity:1;"/>
<path d="M6.66666 12.6667C6.51089 12.667 6.35993 12.6127 6.23999 12.5133C6.17248 12.4574 6.11668 12.3886 6.07578 12.3111C6.03488 12.2335 6.00968 12.1486 6.00163 12.0613C5.99358 11.974 6.00284 11.8859 6.02887 11.8022C6.0549 11.7185 6.09719 11.6407 6.15332 11.5733L9.13999 8L6.25999 4.42C6.20461 4.35181 6.16326 4.27335 6.1383 4.18912C6.11335 4.10489 6.10529 4.01657 6.11458 3.92921C6.12387 3.84186 6.15034 3.75721 6.19245 3.68011C6.23457 3.60302 6.29151 3.53502 6.35999 3.48C6.42897 3.41931 6.50975 3.37353 6.59725 3.34554C6.68476 3.31755 6.77711 3.30794 6.86851 3.31733C6.9599 3.32672 7.04837 3.3549 7.12836 3.4001C7.20835 3.44531 7.27813 3.50655 7.33332 3.58L10.5533 7.58C10.6514 7.69929 10.705 7.84892 10.705 8.00333C10.705 8.15775 10.6514 8.30738 10.5533 8.42667L7.21999 12.4267C7.15311 12.5073 7.06816 12.5711 6.97202 12.6128C6.87588 12.6545 6.77126 12.673 6.66666 12.6667Z" fill="#191919" style="fill:#191919;fill:color(display-p3 0.0980 0.0980 0.0980);fill-opacity:1;"/>
</svg>
