<svg width="16" height="16" viewBox="0 0 16 16" fill="none" xmlns="http://www.w3.org/2000/svg">
<path d="M6.66666 12.6667C6.51089 12.667 6.35993 12.6127 6.23999 12.5133C6.17248 12.4574 6.11668 12.3886 6.07578 12.3111C6.03488 12.2335 6.00968 12.1486 6.00163 12.0613C5.99358 11.974 6.00284 11.8859 6.02887 11.8022C6.0549 11.7185 6.09719 11.6407 6.15332 11.5733L9.13999 8L6.25999 4.42C6.20461 4.35181 6.16326 4.27335 6.1383 4.18912C6.11335 4.10489 6.10529 4.01657 6.11458 3.92921C6.12387 3.84186 6.15034 3.75721 6.19245 3.68011C6.23457 3.60302 6.29151 3.53502 6.35999 3.48C6.42897 3.41931 6.50975 3.37353 6.59725 3.34554C6.68476 3.31755 6.77711 3.30794 6.86851 3.31733C6.9599 3.32672 7.04837 3.3549 7.12836 3.4001C7.20835 3.44531 7.27813 3.50655 7.33332 3.58L10.5533 7.58C10.6514 7.69929 10.705 7.84892 10.705 8.00333C10.705 8.15775 10.6514 8.30738 10.5533 8.42667L7.21999 12.4267C7.15311 12.5073 7.06816 12.5711 6.97202 12.6128C6.87588 12.6545 6.77126 12.673 6.66666 12.6667Z" fill="#191919" style="fill:#191919;fill:color(display-p3 0.0980 0.0980 0.0980);fill-opacity:1;"/>
</svg>
