<svg width="16" height="16" viewBox="0 0 16 16" fill="none" xmlns="http://www.w3.org/2000/svg">
<g opacity="0.3">
<path d="M9.33334 3.33333C9.48911 3.33303 9.64007 3.38728 9.76001 3.48667C9.82751 3.54263 9.88332 3.61137 9.92422 3.68893C9.96512 3.7665 9.99032 3.85137 9.99837 3.93868C10.0064 4.026 9.99716 4.11405 9.97113 4.19779C9.9451 4.28152 9.90281 4.3593 9.84668 4.42667L6.86001 8L9.74001 11.58C9.79539 11.6482 9.83674 11.7267 9.8617 11.8109C9.88665 11.8951 9.89471 11.9834 9.88542 12.0708C9.87613 12.1581 9.84966 12.2428 9.80755 12.3199C9.76543 12.397 9.70849 12.465 9.64001 12.52C9.57103 12.5807 9.49025 12.6265 9.40275 12.6545C9.31524 12.6825 9.22289 12.6921 9.13149 12.6827C9.0401 12.6733 8.95163 12.6451 8.87164 12.5999C8.79165 12.5547 8.72187 12.4934 8.66668 12.42L5.44668 8.42C5.34862 8.30071 5.29502 8.15108 5.29502 7.99667C5.29502 7.84225 5.34862 7.69262 5.44668 7.57333L8.78001 3.57333C8.84689 3.49265 8.93184 3.42888 9.02798 3.38718C9.12412 3.34548 9.22874 3.32703 9.33334 3.33333Z" fill="#191919" style="fill:#191919;fill:color(display-p3 0.0980 0.0980 0.0980);fill-opacity:1;"/>
</g>
</svg>
